<svg width="149px" height="43px" viewBox="0 0 149 43" version="1.1" xmlns="http://www.w3.org/2000/svg">
    <path d="M56.3587507,26.1137407 L56.3587507,30.2293981 L53.1151046,30.2293981 C50.0883673,30.2293981 48.2488365,28.3855741 48.2488365,25.3536759 L48.2488365,20.2060185 L45.7437989,20.2060185 L45.7437989,19.1083241 L51.8759678,12.599 L52.8438686,12.599 L52.8438686,16.5880463 L56.2828525,16.5880463 L56.2828525,20.2060185 L52.9633083,20.2060185 L52.9633083,24.5478241 C52.9633083,25.5244815 53.5549142,26.1137407 54.5491796,26.1137407 L56.3587507,26.1137407"></path>
    <path d="M67.4726327,16.5231481 L67.4726327,20.8231481 L65.642689,20.8231481 C63.9737292,20.8231481 63.2746676,21.5521574 63.2746676,23.292463 L63.2746676,30.2293981 L58.5601957,30.2293981 L58.5601957,16.5880463 L61.718756,16.5880463 L62.4541689,18.1022037 C63.4192735,16.9889815 64.5952949,16.5231481 66.2239088,16.5231481 L67.4726327,16.5231481"></path>
    <path d="M79.1142064,23.4047407 C79.1142064,21.6345741 77.8163485,20.303963 76.0507185,20.303963 C74.2743029,20.303963 72.9872306,21.6345741 72.9872306,23.4047407 C72.9872306,25.1860556 74.2850885,26.5162685 76.0507185,26.5162685 C77.8163485,26.5162685 79.1142064,25.1860556 79.1142064,23.4047407 Z M83.5985871,16.573713 L83.5985871,30.2150648 L79.9534799,30.2150648 L79.5500214,29.2503519 C78.429126,30.1549444 77.0098311,30.6761204 75.4203646,30.6761204 C71.2351823,30.6761204 68.2439973,27.6334722 68.2439973,23.3935926 C68.2439973,19.1692407 71.2351823,16.1628241 75.4203646,16.1628241 C77.0326005,16.1628241 78.4722681,16.6987315 79.6023512,17.6284074 L80.084504,16.5729167 L83.5985871,16.573713 Z"></path>
    <polyline points="100.445174 16.5880463 94.9421609 30.2293981 90.6718928 30.2293981 85.0969759 16.5880463 90.2616434 16.5880463 92.848571 24.6672685 95.4067373 16.5880463 100.445174 16.5880463"></polyline>
    <path d="M111.434823,23.4047407 C111.434823,21.6345741 110.137365,20.303963 108.371335,20.303963 C106.59452,20.303963 105.307448,21.6345741 105.307448,23.4047407 C105.307448,25.1860556 106.605705,26.5162685 108.371335,26.5162685 C110.137365,26.5162685 111.434823,25.1860556 111.434823,23.4047407 Z M115.918405,16.573713 L115.918405,30.2150648 L112.274496,30.2150648 L111.870239,29.2503519 C110.749743,30.1549444 109.330048,30.6761204 107.740582,30.6761204 C103.555799,30.6761204 100.564214,27.6334722 100.564214,23.3935926 C100.564214,19.1692407 103.555799,16.1628241 107.740582,16.1628241 C109.353217,16.1628241 110.792885,16.6987315 111.922568,17.6284074 L112.405121,16.5729167 L115.918405,16.573713 Z"></path>
    <path d="M118.714252,24.373037 L118.714252,16.5880463 L123.428324,16.5880463 L123.428324,24.168787 C123.428324,25.6084907 124.205282,26.45575 125.464791,26.45575 C126.723901,26.45575 127.486078,25.5941574 127.486078,24.168787 L127.486078,16.5880463 L132.199751,16.5880463 L132.199751,24.373037 C132.199751,28.1904815 129.507365,30.6761204 125.464791,30.6761204 C121.421418,30.6761204 118.714252,28.1904815 118.714252,24.373037"></path>
    <polyline points="143.095126 30.2293981 140.844547 26.1881944 138.549627 30.2293981 133.343416 30.2293981 137.883721 23.1515185 133.676568 16.5880463 138.879584 16.5880463 140.85733 20.0232685 142.925354 16.5880463 148.055668 16.5880463 143.814161 23.029287 148.363255 30.2293981 143.095126 30.2293981"></polyline>
    <polygon fill="#E4AB43" points="132.909997 39.1140741 148.770308 39.1140741 148.770308 34.3235556 132.909997 34.3235556"></polygon>
    <polyline points="86.7563485 12.8243519 83.3760858 9.45522222 92.821008 0.0414074074 96.2012708 3.41053704 86.7563485 12.8243519"></polyline>
    <polyline fill="#52B795" points="96.2004718 3.41133333 92.8174129 6.78325 99.128941 13.0807593 102.520389 9.72277778 96.2004718 3.41133333"></polyline>
    <path fill="#E26258" d="M20.6131314,42.6675463 C12.1369088,42.6675463 5.9556059,37.3056852 5.86532708,37.2224722 L9.01749598,33.6857222 C9.31469705,33.9465093 14.0747078,38.02275 20.6299088,37.9494907 L20.6131314,42.6675463"></path>
    <path d="M20.6131314,42.6671481 C24.8578338,42.663963 29.6961394,41.3154352 34.6127399,37.2849815 L31.5995845,33.6303796 C27.714,36.815963 23.9430617,37.9120648 20.6299088,37.9486944 L20.6131314,42.6671481"></path>
    <path d="M22.8932708,24.4638148 C22.8932708,23.0448148 21.9181796,22.077713 20.5384316,22.077713 C19.1726649,22.077713 18.183193,23.0448148 18.183193,24.4638148 C18.183193,25.8684815 19.1726649,26.8256296 20.5384316,26.8256296 C21.9181796,26.8256296 22.8932708,25.8684815 22.8932708,24.4638148 Z M27.2338445,24.4638148 C27.2338445,28.1474815 24.5083029,30.6848796 20.5528123,30.6848796 C16.5749517,30.6848796 13.8426193,28.151463 13.8426193,24.4853148 C13.8426193,22.7633241 14.3587265,21.0588519 15.7704316,18.702213 L18.8686729,13.4968241 L23.7365389,13.4968241 C22.6268284,15.3502037 21.505134,17.1948241 20.3930268,19.0474074 C20.7565389,18.9920648 21.1264424,18.965787 21.5079303,18.965787 C24.8818016,18.965787 27.2338445,21.2169167 27.2338445,24.4638148 Z"></path>
    <path d="M38.6892681,21.9303981 C38.6892681,18.8351944 37.6934048,17.0948889 35.9321689,17.0948889 C34.1569517,17.0948889 33.1750697,18.8208611 33.1750697,21.9160648 C33.1750697,25.0104722 34.1569517,26.7364444 35.9321689,26.7364444 C37.708185,26.7364444 38.6892681,25.0252037 38.6892681,21.9303981 Z M28.5548713,21.9160648 C28.5548713,16.5350926 31.4378016,13.0935 35.9321689,13.0935 C40.4269357,13.0935 43.3102654,16.5350926 43.3102654,21.9160648 C43.3102654,27.2819074 40.4121555,30.7386296 35.9321689,30.7386296 C31.4525818,30.7386296 28.5548713,27.2819074 28.5548713,21.9160648 Z"></path>
    <path d="M11.3811233,22.4173333 C11.020807,21.9431389 10.5578284,21.5557407 9.99937802,21.2583241 C11.2145469,20.5993889 11.8488954,19.4463519 11.8488954,17.8676944 C11.8488954,16.3396019 11.2684745,15.1200741 10.1240107,14.2433519 C9.12734853,13.4749259 7.85345845,13.0847407 6.33829223,13.0847407 C4.64017158,13.0847407 3.24404558,13.5294722 2.1886622,14.4069907 C1.13208043,15.2868981 0.456587131,16.5757037 0.180557641,18.2371759 L4.09570241,18.9785278 C4.13325201,18.8041389 4.50155764,16.9400093 6.06585791,16.9400093 C7.07849866,16.9400093 7.79393834,17.6495093 7.79393834,18.6910648 C7.79393834,18.734463 7.78515013,18.7734815 7.78275335,18.8156852 C7.78155496,19.0290926 7.7436059,19.2006944 7.68408579,19.3340741 C7.44960054,20.0013704 6.84880697,20.4238056 6.06585791,20.4238056 C6.05866756,20.4238056 6.05187668,20.422213 6.04468633,20.422213 L4.47798928,20.422213 L4.47798928,23.3541759 C4.47798928,23.3541759 6.04069169,23.3394444 6.06585791,23.3394444 C7.07849866,23.3394444 7.79393834,24.0493426 7.79393834,25.0905 C7.79393834,25.9059074 7.34214477,26.5091019 6.65386863,26.7284815 C6.59155228,26.7503796 6.52524129,26.7698889 6.45573458,26.7842222 C6.43656032,26.7878056 6.41778552,26.7909907 6.39861126,26.7941759 C6.26279357,26.818463 6.13136997,26.8304074 6.04868097,26.8304074 C5.81179893,26.8304074 5.60527614,26.7838241 5.42072386,26.710963 C5.38477212,26.6982222 5.35041823,26.6830926 5.31606434,26.6683611 C5.29529223,26.6584074 5.27531903,26.6480556 5.25534584,26.6373056 C4.96853083,26.4975556 4.7360429,26.2833519 4.5770563,26.0078333 C4.21953619,25.4842685 4.09889812,24.8870463 4.07852547,24.7918889 L0.0443404826,25.5682778 C0.117042895,27.1600741 0.689474531,28.4285741 1.76323324,29.333963 C2.81062735,30.221037 4.22792493,30.6709444 5.97557909,30.6709444 C7.71564343,30.6709444 9.17608311,30.2270093 10.3157534,29.3518796 C11.605622,28.3672593 12.2599437,26.9920556 12.2599437,25.2640926 C12.2599437,24.141713 11.9643405,23.1837685 11.3811233,22.4173333"></path>
</svg>
